<svg width="121" height="26" viewBox="0 0 121 26" fill="none" xmlns="http://www.w3.org/2000/svg">
<path d="M1.89953 4.41819V9.72588C1.89953 10.5966 1.89953 11.5745 0 11.5745V13.0086V13.0279V14.426C1.89953 14.426 1.89953 15.4034 1.89953 16.2747V21.5818C1.89953 25.7009 4.2729 26 8.30857 26V22.7964C6.40905 22.7964 5.69739 22.5305 5.69739 21.5028V16.2476C5.69739 15.0341 5.78501 13.7665 4.67104 12.9997C5.78501 12.2341 5.69739 10.9664 5.69739 9.75187V4.4978C5.69739 3.4712 6.40964 3.20419 8.30857 3.20419V7.60145e-07C4.2729 -0.000551305 1.89953 0.298528 1.89953 4.41819ZM12.5791 4.24626C11.5414 5.07993 11.0229 6.27735 11.0229 7.83743V9.23884H8.85513V12.1672H11.0229V22.7792H15.7332V12.1672H18.6514V9.23884H15.7332V8.23933C15.7332 7.73073 15.8906 7.33878 16.2053 7.06347C16.52 6.78816 16.97 6.65106 17.5535 6.65106C17.8402 6.65106 19.3046 6.65548 19.3046 6.65548V3.25726C19.3046 3.25726 16.6899 3.23017 16.3162 3.23017C15.1789 3.23017 13.6168 3.4115 12.5791 4.24626ZM21.3764 6.64332H26.0874V3.25726H21.3764V6.64332ZM21.3764 22.7798H26.0874V9.23884H21.3764V22.7798ZM37.7039 8.98841C36.8146 8.98841 36.0082 9.17858 35.2858 9.55782C34.5634 9.93706 33.9567 10.4656 33.4655 11.1406L33.285 9.23884H28.8797V22.7792H33.5627V13.0439C33.8035 12.7935 34.0932 12.5962 34.4311 12.4557C34.7691 12.3153 35.1559 12.2429 35.5916 12.2429C36.2865 12.2429 36.8122 12.4038 37.1686 12.7244C37.5251 13.0462 37.7039 13.5935 37.7039 14.3702V22.7803H42.4005V14.3829C42.4005 12.5055 41.9857 11.1373 41.1572 10.2776C40.3282 9.41796 39.1767 8.98841 37.7039 8.98841ZM56.605 16.1033C55.7205 15.457 54.3604 14.97 52.5264 14.6449C51.3594 14.4459 50.5828 14.2193 50.1989 13.9688C49.8145 13.7195 49.622 13.4138 49.622 13.0556C49.622 12.6796 49.7889 12.3728 50.122 12.1301C50.4552 11.888 50.8677 11.7664 51.3588 11.7664C52.0257 11.7664 52.5097 11.9046 52.8107 12.1799C53.1117 12.4552 53.2625 12.8599 53.2625 13.3933H57.8203L57.8483 13.3187C57.9043 12.0406 57.3393 11.0018 56.1532 10.1963C54.9671 9.39087 53.3733 8.98786 51.3725 8.98786C49.473 8.98786 47.968 9.40359 46.8558 10.2339C45.7442 11.0643 45.1887 12.0748 45.1887 13.2673C45.1887 14.3934 45.6334 15.2829 46.5226 15.933C47.4119 16.5843 48.7321 17.0636 50.4832 17.3726C51.5948 17.581 52.3613 17.8165 52.7827 18.0791C53.2047 18.3422 53.4151 18.6413 53.4151 18.973C53.4151 19.3821 53.2529 19.6983 52.9287 19.9178C52.6045 20.1389 52.1277 20.2512 51.4977 20.2512C50.7383 20.2512 50.1518 20.108 49.74 19.8249C49.3275 19.5419 49.1124 19.0786 49.0939 18.4362H44.8419L44.8144 18.5109C44.759 19.6629 45.3258 20.7061 46.5167 21.6399C47.7069 22.5747 49.3257 23.0413 51.3731 23.0413C53.3465 23.0413 54.9325 22.6471 56.1323 21.8582C57.3327 21.0699 57.9323 20.0676 57.9323 18.8486C57.9323 17.665 57.4895 16.7495 56.605 16.1033ZM73.3717 17.0857H73.2883L70.8154 9.23995H67.8549L65.4095 17.1492H65.326L63.6726 9.23995H59.3372L62.8805 22.7803H66.8417L69.3003 15.5975H69.3837L71.8298 22.7803H75.8041L79.3338 9.23995H74.9983L73.3717 17.0857ZM87.308 8.98833C85.0753 8.98012 83.3581 9.62914 82.1589 10.9349C80.9579 12.2401 80.3583 13.9235 80.3583 15.9839V16.4599C80.3583 18.345 81.0187 19.9139 82.3377 21.1655C83.6579 22.4177 85.4257 23.0429 87.6399 23.0429C88.835 23.0429 89.9537 22.8992 90.9962 22.6112C92.038 22.3237 92.8885 21.9633 93.5454 21.5293L92.4344 18.9509C91.619 19.2605 90.9449 19.4766 90.4121 19.6021C89.8786 19.7282 89.1676 19.7906 88.2783 19.7906C87.398 19.7906 86.6947 19.5673 86.1666 19.1212C85.6379 18.6734 85.3238 18.1045 85.2213 17.4124L85.2499 17.3367H93.8368V15.1204C93.8368 13.2352 93.2575 11.742 92.1 10.6403C90.9437 9.53903 89.3452 8.98833 87.308 8.98833ZM89.2534 14.6958H85.2094L85.1676 14.6339C85.2421 13.9075 85.4484 13.3276 85.7869 12.8936C86.1243 12.4607 86.6321 12.2435 87.3086 12.2435C87.9755 12.2435 88.4654 12.427 88.7819 12.7941C89.0966 13.1611 89.2546 13.6869 89.2546 14.3707L89.2534 14.6958ZM103.069 8.98833C100.837 8.98012 99.1206 9.62914 97.9202 10.9349C96.721 12.2401 96.1202 13.9235 96.1202 15.9839V16.4599C96.1202 18.345 96.7806 19.9139 98.1008 21.1655C99.4215 22.4177 101.188 23.0429 103.402 23.0429C104.597 23.0429 105.716 22.8992 106.759 22.6112C107.801 22.3237 108.651 21.9633 109.308 21.5293L108.197 18.9509C107.381 19.2605 106.708 19.4766 106.175 19.6021C105.64 19.7282 104.931 19.7906 104.041 19.7906C103.161 19.7906 102.458 19.5673 101.929 19.1212C101.4 18.6734 101.086 18.1045 100.984 17.4124L101.012 17.3367H109.599V15.1204C109.599 13.2352 109.02 11.742 107.862 10.6403C106.704 9.53903 105.108 8.98833 103.069 8.98833ZM105.014 14.6958H100.971L100.929 14.6339C101.004 13.9075 101.21 13.3276 101.548 12.8936C101.885 12.4607 102.393 12.2435 103.069 12.2435C103.736 12.2435 104.227 12.427 104.543 12.7941C104.859 13.1611 105.016 13.6869 105.016 14.3707V14.6963H105.014V14.6958ZM119.249 19.2677C118.665 19.2677 118.215 19.1306 117.901 18.8553C117.586 18.58 117.428 18.1869 117.428 17.6783V12.1909H119.872V9.26151H117.428V3.2357H112.718V9.26151H110.549V12.1909H112.718V18.0802C112.718 19.6403 113.236 20.8377 114.273 21.6725C115.31 22.5078 116.872 22.6886 118.011 22.6886C118.385 22.6886 121 22.6615 121 22.6615V19.2633C121 19.2633 119.537 19.2677 119.249 19.2677Z" fill="white"/>
</svg>
